<svg width="10" height="11" viewBox="0 0 10 11" fill="none" xmlns="http://www.w3.org/2000/svg">
<path d="M0.572899 0.0035993C0.459691 0.00352035 0.349006 0.0403876 0.254854 0.109535C0.160701 0.178682 0.0873146 0.277 0.0439819 0.392046C0.000649228 0.507092 -0.0106814 0.633692 0.0114242 0.755825C0.0335299 0.877957 0.0880779 0.99013 0.168164 1.07815L4.18928 5.5L0.168164 9.92185C0.0604905 10.0403 0 10.2009 0 10.3684C0 10.5359 0.0604905 10.6966 0.168164 10.815C0.275838 10.9335 0.421875 11 0.574148 11C0.726422 11 0.872459 10.9335 0.980133 10.815L5.00125 6.39317L9.02237 10.815C9.13023 10.9322 9.2755 10.9983 9.4271 10.9991C9.5023 10.9995 9.57681 10.9835 9.6463 10.9518C9.71579 10.9202 9.77886 10.8737 9.83184 10.815C9.93924 10.6964 9.99955 10.5358 9.99955 10.3684C9.99955 10.201 9.93924 10.0405 9.83184 9.92185L5.81072 5.5L9.83184 1.07815C9.88515 1.0195 9.92744 0.949877 9.9563 0.873252C9.98515 0.796627 10 0.714501 10 0.631563C10 0.548625 9.98515 0.466499 9.9563 0.389874C9.92744 0.31325 9.88515 0.243627 9.83184 0.18498C9.77852 0.126334 9.71523 0.0798138 9.64557 0.0480748C9.57591 0.0163358 9.50125 0 9.42585 0C9.35045 0 9.27579 0.0163358 9.20613 0.0480748C9.13648 0.0798138 9.07318 0.126334 9.01987 0.18498L4.99813 4.60958L0.976385 0.187729C0.868901 0.0699206 0.723383 0.00371924 0.57165 0.0035993H0.572899Z" fill="#212121"/>
</svg>
